<?xml version="1.0" encoding="UTF-8"?>
<svg width="32" height="32" viewBox="0 0 32 32" fill="none" xmlns="http://www.w3.org/2000/svg">
  <circle cx="16" cy="16" r="16" fill="#7C4DFF"/>
  <path d="M16 8C12.6863 8 10 10.6863 10 14C10 17.3137 12.6863 20 16 20C19.3137 20 22 17.3137 22 14C22 10.6863 19.3137 8 16 8ZM16 18C13.7909 18 12 16.2091 12 14C12 11.7909 13.7909 10 16 10C18.2091 10 20 11.7909 20 14C20 16.2091 18.2091 18 16 18Z" fill="white"/>
  <circle cx="14" cy="13" r="1.5" fill="white"/>
  <circle cx="18" cy="13" r="1.5" fill="white"/>
  <path d="M16 15.5C14.8954 15.5 14 16.3954 14 17.5H18C18 16.3954 17.1046 15.5 16 15.5Z" fill="white"/>
</svg> 